<?xml version="1.0" encoding="UTF-8"?>
<!DOCTYPE svg PUBLIC "-//W3C//DTD SVG 1.1//EN" "http://www.w3.org/Graphics/SVG/1.1/DTD/svg11.dtd">
<svg version="1.2" width="30.64mm" height="39.3mm" viewBox="959 799 3064 3930" preserveAspectRatio="xMidYMid" fill-rule="evenodd" stroke-width="28.222" stroke-linejoin="round" xmlns="http://www.w3.org/2000/svg" xmlns:ooo="http://xml.openoffice.org/svg/export" xmlns:xlink="http://www.w3.org/1999/xlink" xmlns:presentation="http://sun.com/xmlns/staroffice/presentation" xmlns:smil="http://www.w3.org/2001/SMIL20/" xmlns:anim="urn:oasis:names:tc:opendocument:xmlns:animation:1.0" xmlns:svg="urn:oasis:names:tc:opendocument:xmlns:svg-compatible:1.0" xml:space="preserve">
 <defs class="EmbeddedBulletChars">
  <g id="bullet-char-template-57356" transform="scale(0.00048828125,-0.00048828125)">
   <path d="M 580,1141 L 1163,571 580,0 -4,571 580,1141 Z"/>
  </g>
  <g id="bullet-char-template-57354" transform="scale(0.00048828125,-0.00048828125)">
   <path d="M 8,1128 L 1137,1128 1137,0 8,0 8,1128 Z"/>
  </g>
  <g id="bullet-char-template-10146" transform="scale(0.00048828125,-0.00048828125)">
   <path d="M 174,0 L 602,739 174,1481 1456,739 174,0 Z M 1358,739 L 309,1346 659,739 1358,739 Z"/>
  </g>
  <g id="bullet-char-template-10132" transform="scale(0.00048828125,-0.00048828125)">
   <path d="M 2015,739 L 1276,0 717,0 1260,543 174,543 174,936 1260,936 717,1481 1274,1481 2015,739 Z"/>
  </g>
  <g id="bullet-char-template-10007" transform="scale(0.00048828125,-0.00048828125)">
   <path d="M 0,-2 C -7,14 -16,27 -25,37 L 356,567 C 262,823 215,952 215,954 215,979 228,992 255,992 264,992 276,990 289,987 310,991 331,999 354,1012 L 381,999 492,748 772,1049 836,1024 860,1049 C 881,1039 901,1025 922,1006 886,937 835,863 770,784 769,783 710,716 594,584 L 774,223 C 774,196 753,168 711,139 L 727,119 C 717,90 699,76 672,76 641,76 570,178 457,381 L 164,-76 C 142,-110 111,-127 72,-127 30,-127 9,-110 8,-76 1,-67 -2,-52 -2,-32 -2,-23 -1,-13 0,-2 Z"/>
  </g>
  <g id="bullet-char-template-10004" transform="scale(0.00048828125,-0.00048828125)">
   <path d="M 285,-33 C 182,-33 111,30 74,156 52,228 41,333 41,471 41,549 55,616 82,672 116,743 169,778 240,778 293,778 328,747 346,684 L 369,508 C 377,444 397,411 428,410 L 1163,1116 C 1174,1127 1196,1133 1229,1133 1271,1133 1292,1118 1292,1087 L 1292,965 C 1292,929 1282,901 1262,881 L 442,47 C 390,-6 338,-33 285,-33 Z"/>
  </g>
  <g id="bullet-char-template-9679" transform="scale(0.00048828125,-0.00048828125)">
   <path d="M 813,0 C 632,0 489,54 383,161 276,268 223,411 223,592 223,773 276,916 383,1023 489,1130 632,1184 813,1184 992,1184 1136,1130 1245,1023 1353,916 1407,772 1407,592 1407,412 1353,268 1245,161 1136,54 992,0 813,0 Z"/>
  </g>
  <g id="bullet-char-template-8226" transform="scale(0.00048828125,-0.00048828125)">
   <path d="M 346,457 C 273,457 209,483 155,535 101,586 74,649 74,723 74,796 101,859 155,911 209,963 273,989 346,989 419,989 480,963 531,910 582,859 608,796 608,723 608,648 583,586 532,535 482,483 420,457 346,457 Z"/>
  </g>
  <g id="bullet-char-template-8211" transform="scale(0.00048828125,-0.00048828125)">
   <path d="M -4,459 L 1135,459 1135,606 -4,606 -4,459 Z"/>
  </g>
  <g id="bullet-char-template-61548" transform="scale(0.00048828125,-0.00048828125)">
   <path d="M 173,740 C 173,903 231,1043 346,1159 462,1274 601,1332 765,1332 928,1332 1067,1274 1183,1159 1299,1043 1357,903 1357,740 1357,577 1299,437 1183,322 1067,206 928,148 765,148 601,148 462,206 346,322 231,437 173,577 173,740 Z"/>
  </g>
 </defs>
 <g class="Page">
  <g class="com.sun.star.drawing.CustomShape">
   <g id="id3">
    <rect class="BoundingBox" stroke="none" fill="none" x="1273" y="1173" width="456" height="456"/>
    <path fill="none" stroke="rgb(167,7,75)" stroke-width="53" stroke-linejoin="round" d="M 1701,1401 C 1701,1436 1692,1470 1674,1501 1657,1531 1631,1557 1601,1574 1570,1592 1536,1601 1501,1601 1465,1601 1431,1592 1400,1574 1370,1557 1344,1531 1327,1501 1309,1470 1300,1436 1300,1401 1300,1365 1309,1331 1327,1300 1344,1270 1370,1244 1400,1227 1431,1209 1465,1200 1501,1200 1536,1200 1570,1209 1601,1227 1631,1244 1657,1270 1674,1300 1692,1331 1701,1365 1701,1401 L 1701,1401 Z"/>
   </g>
  </g>
  <g class="com.sun.star.drawing.CustomShape">
   <g id="id4">
    <rect class="BoundingBox" stroke="none" fill="none" x="3273" y="1173" width="456" height="456"/>
    <path fill="none" stroke="rgb(167,7,75)" stroke-width="53" stroke-linejoin="round" d="M 3701,1401 C 3701,1436 3692,1470 3674,1501 3657,1531 3631,1557 3601,1574 3570,1592 3536,1601 3501,1601 3465,1601 3431,1592 3400,1574 3370,1557 3344,1531 3327,1501 3309,1470 3300,1436 3300,1401 3300,1365 3309,1331 3327,1300 3344,1270 3370,1244 3400,1227 3431,1209 3465,1200 3501,1200 3536,1200 3570,1209 3601,1227 3631,1244 3657,1270 3674,1300 3692,1331 3701,1365 3701,1401 L 3701,1401 Z"/>
   </g>
  </g>
  <g class="com.sun.star.drawing.CustomShape">
   <g id="id5">
    <rect class="BoundingBox" stroke="none" fill="none" x="2373" y="3373" width="256" height="256"/>
    <path fill="none" stroke="rgb(167,7,75)" stroke-width="53" stroke-linejoin="round" d="M 2601,3501 C 2601,3518 2596,3535 2588,3551 2579,3566 2566,3579 2551,3588 2535,3596 2518,3601 2500,3601 2483,3601 2466,3596 2450,3588 2435,3579 2422,3566 2413,3551 2405,3535 2400,3518 2400,3501 2400,3483 2405,3466 2413,3450 2422,3435 2435,3422 2450,3413 2466,3405 2483,3400 2500,3400 2518,3400 2535,3405 2551,3413 2566,3422 2579,3435 2588,3450 2596,3466 2601,3483 2601,3501 Z"/>
   </g>
  </g>
  <g class="com.sun.star.drawing.CustomShape">
   <g id="id6">
    <rect class="BoundingBox" stroke="none" fill="none" x="1273" y="4273" width="456" height="456"/>
    <path fill="none" stroke="rgb(167,7,75)" stroke-width="53" stroke-linejoin="round" d="M 1701,4501 C 1701,4536 1692,4570 1674,4601 1657,4631 1631,4657 1601,4674 1570,4692 1536,4701 1501,4701 1465,4701 1431,4692 1400,4674 1370,4657 1344,4631 1327,4601 1309,4570 1300,4536 1300,4501 1300,4465 1309,4431 1327,4400 1344,4370 1370,4344 1400,4327 1431,4309 1465,4300 1501,4300 1536,4300 1570,4309 1601,4327 1631,4344 1657,4370 1674,4400 1692,4431 1701,4465 1701,4501 Z"/>
   </g>
  </g>
  <g class="com.sun.star.drawing.CustomShape">
   <g id="id7">
    <rect class="BoundingBox" stroke="none" fill="none" x="3273" y="4273" width="456" height="456"/>
    <path fill="none" stroke="rgb(167,7,75)" stroke-width="53" stroke-linejoin="round" d="M 3701,4501 C 3701,4536 3692,4570 3674,4601 3657,4631 3631,4657 3601,4674 3570,4692 3536,4701 3501,4701 3465,4701 3431,4692 3400,4674 3370,4657 3344,4631 3327,4601 3309,4570 3300,4536 3300,4501 3300,4465 3309,4431 3327,4400 3344,4370 3370,4344 3400,4327 3431,4309 3465,4300 3501,4300 3536,4300 3570,4309 3601,4327 3631,4344 3657,4370 3674,4400 3692,4431 3701,4465 3701,4501 Z"/>
   </g>
  </g>
  <g class="com.sun.star.drawing.CustomShape">
   <g id="id8">
    <rect class="BoundingBox" stroke="none" fill="none" x="2373" y="2373" width="256" height="256"/>
    <path fill="none" stroke="rgb(167,7,75)" stroke-width="53" stroke-linejoin="round" d="M 2601,2500 C 2601,2518 2596,2535 2588,2551 2579,2566 2566,2579 2551,2588 2535,2596 2518,2601 2500,2601 2483,2601 2466,2596 2450,2588 2435,2579 2422,2566 2413,2551 2405,2535 2400,2518 2400,2500 2400,2483 2405,2466 2413,2450 2422,2435 2435,2422 2450,2413 2466,2405 2483,2400 2500,2400 2518,2400 2535,2405 2551,2413 2566,2422 2579,2435 2588,2450 2596,2466 2601,2483 2601,2500 Z"/>
   </g>
  </g>
  <g class="com.sun.star.drawing.LineShape">
   <g id="id9">
    <rect class="BoundingBox" stroke="none" fill="none" x="1700" y="1210" width="1601" height="381"/>
    <path fill="none" stroke="rgb(52,101,164)" stroke-width="53" stroke-linejoin="round" d="M 1927,1400 L 3073,1400"/>
    <path fill="rgb(52,101,164)" stroke="none" d="M 1700,1400 L 1953,1590 1924,1551 1901,1506 1886,1456 1880,1402 1885,1348 1900,1297 1923,1250 1953,1211 1700,1400 Z"/>
    <path fill="rgb(52,101,164)" stroke="none" d="M 3300,1400 L 3047,1211 3076,1249 3099,1294 3114,1344 3120,1398 3115,1452 3100,1503 3077,1550 3047,1590 3300,1400 Z"/>
   </g>
  </g>
  <g class="com.sun.star.drawing.ConnectorShape">
   <g id="id10">
    <rect class="BoundingBox" stroke="none" fill="none" x="1331" y="1599" width="1070" height="1071"/>
    <path fill="none" stroke="rgb(52,101,164)" stroke-width="53" stroke-linejoin="round" d="M 2172,2483 C 1724,2413 1587,2276 1516,1827"/>
    <path fill="rgb(52,101,164)" stroke="none" d="M 2400,2500 L 2164,2290 2189,2331 2208,2378 2219,2429 2221,2483 2212,2536 2192,2586 2166,2631 2133,2668 2400,2500 Z"/>
    <path fill="rgb(52,101,164)" stroke="none" d="M 1500,1600 L 1332,1867 1368,1836 1411,1809 1459,1790 1513,1780 1567,1780 1619,1791 1668,1810 1709,1836 1500,1600 Z"/>
   </g>
  </g>
  <g class="com.sun.star.drawing.ConnectorShape">
   <g id="id11">
    <rect class="BoundingBox" stroke="none" fill="none" x="2599" y="1600" width="1071" height="1070"/>
    <path fill="none" stroke="rgb(52,101,164)" stroke-width="53" stroke-linejoin="round" d="M 3483,1828 C 3413,2276 3276,2413 2827,2484"/>
    <path fill="rgb(52,101,164)" stroke="none" d="M 3500,1600 L 3290,1836 3331,1811 3378,1792 3429,1781 3483,1779 3536,1788 3586,1808 3631,1834 3668,1867 3500,1600 Z"/>
    <path fill="rgb(52,101,164)" stroke="none" d="M 2600,2500 L 2867,2668 2836,2632 2809,2589 2790,2541 2780,2487 2780,2433 2791,2381 2810,2332 2836,2291 2600,2500 Z"/>
   </g>
  </g>
  <g class="com.sun.star.drawing.ConnectorShape">
   <g id="id12">
    <rect class="BoundingBox" stroke="none" fill="none" x="2310" y="2600" width="381" height="801"/>
    <path fill="none" stroke="rgb(52,101,164)" stroke-width="53" stroke-linejoin="round" d="M 2500,2827 L 2500,3173"/>
    <path fill="rgb(52,101,164)" stroke="none" d="M 2500,2600 L 2311,2853 2349,2824 2394,2801 2444,2786 2498,2780 2552,2785 2603,2800 2650,2823 2690,2853 2500,2600 Z"/>
    <path fill="rgb(52,101,164)" stroke="none" d="M 2500,3400 L 2690,3147 2651,3176 2606,3199 2556,3214 2502,3220 2448,3215 2397,3200 2350,3177 2311,3147 2500,3400 Z"/>
   </g>
  </g>
  <g class="com.sun.star.drawing.ConnectorShape">
   <g id="id13">
    <rect class="BoundingBox" stroke="none" fill="none" x="1338" y="3329" width="1064" height="972"/>
    <path fill="none" stroke="rgb(52,101,164)" stroke-width="53" stroke-linejoin="round" d="M 1521,4072 C 1600,3690 1724,3577 2173,3515"/>
    <path fill="rgb(52,101,164)" stroke="none" d="M 1500,4300 L 1715,4069 1674,4093 1626,4111 1575,4121 1521,4121 1468,4111 1419,4090 1374,4063 1338,4029 1500,4300 Z"/>
    <path fill="rgb(52,101,164)" stroke="none" d="M 2400,3500 L 2134,3329 2165,3365 2191,3409 2210,3458 2220,3511 2220,3565 2208,3617 2189,3666 2162,3707 2400,3500 Z"/>
   </g>
  </g>
  <g class="com.sun.star.drawing.ConnectorShape">
   <g id="id14">
    <rect class="BoundingBox" stroke="none" fill="none" x="2600" y="3329" width="1064" height="973"/>
    <path fill="none" stroke="rgb(52,101,164)" stroke-width="53" stroke-linejoin="round" d="M 2829,3515 C 3276,3577 3401,3691 3479,4074"/>
    <path fill="rgb(52,101,164)" stroke="none" d="M 2600,3500 L 2838,3707 2813,3667 2793,3620 2781,3570 2780,3515 2788,3462 2807,3412 2833,3367 2866,3329 2600,3500 Z"/>
    <path fill="rgb(52,101,164)" stroke="none" d="M 3500,4300 L 3662,4029 3627,4061 3584,4089 3536,4109 3483,4120 3429,4122 3377,4112 3328,4094 3285,4069 3500,4300 Z"/>
   </g>
  </g>
  <g class="com.sun.star.drawing.ConnectorShape">
   <g id="id15">
    <rect class="BoundingBox" stroke="none" fill="none" x="3343" y="799" width="680" height="629"/>
    <path fill="none" stroke="rgb(52,101,164)" stroke-width="53" stroke-linejoin="round" d="M 3524,980 C 3587,755 3732,800 3880,970 4028,1140 4093,1400 3700,1400"/>
    <path fill="rgb(52,101,164)" stroke="none" d="M 3720,980 L 3500,1200 3344,931 3720,980 Z"/>
   </g>
  </g>
  <g class="com.sun.star.drawing.ConnectorShape">
   <g id="id16">
    <rect class="BoundingBox" stroke="none" fill="none" x="959" y="820" width="692" height="608"/>
    <path fill="none" stroke="rgb(52,101,164)" stroke-width="53" stroke-linejoin="round" d="M 1471,981 C 1403,782 1260,822 1106,985 952,1148 883,1400 1300,1400"/>
    <path fill="rgb(52,101,164)" stroke="none" d="M 1649,927 L 1500,1200 1275,986 1649,927 Z"/>
   </g>
  </g>
 </g>
</svg>